<?xml version="1.0" standalone="no"?>
<!DOCTYPE svg PUBLIC "-//W3C//DTD SVG 20010904//EN"
 "http://www.w3.org/TR/2001/REC-SVG-20010904/DTD/svg10.dtd">
<svg version="1.0" xmlns="http://www.w3.org/2000/svg"
 width="500.000000pt" height="178.000000pt" viewBox="0 0 500.000000 178.000000"
 preserveAspectRatio="xMidYMid meet">

<g transform="translate(0.000000,178.000000) scale(0.100000,-0.100000)"
fill="#000000" stroke="none">
<path d="M4016 1650 c-118 -46 -167 -144 -182 -363 l-6 -98 -33 -13 c-18 -8
-36 -24 -40 -36 -10 -33 13 -77 46 -89 26 -9 29 -15 29 -53 0 -24 1 -218 3
-431 l2 -389 24 -19 c30 -24 62 -24 92 0 l24 19 3 436 3 435 86 3 c80 3 87 5
106 30 18 24 18 30 7 57 -14 35 -27 40 -125 43 l-70 3 -3 94 c-5 152 33 225
128 251 66 18 90 75 50 118 -26 28 -77 28 -144 2z"/>
<path d="M4387 1412 c-12 -13 -17 -43 -19 -122 l-3 -105 -30 -3 c-42 -5 -65
-29 -65 -67 0 -38 17 -55 63 -64 l32 -7 6 -214 c5 -183 8 -222 25 -263 44
-106 107 -150 234 -166 105 -14 140 2 140 65 0 43 -25 60 -94 67 -79 8 -128
41 -152 104 -16 40 -19 77 -19 228 l0 180 86 3 c103 3 126 19 120 82 -3 38
-19 45 -113 50 l-93 5 -3 105 c-3 118 -14 140 -67 140 -18 0 -39 -8 -48 -18z"/>
<path d="M415 1243 c-31 -8 -35 -21 -35 -116 0 -85 1 -88 26 -97 14 -6 163
-10 350 -10 369 0 383 2 410 66 19 46 12 94 -21 131 l-23 28 -344 2 c-188 0
-352 -1 -363 -4z"/>
<path d="M1322 1237 c-35 -20 -55 -56 -56 -103 -1 -36 4 -49 31 -76 86 -85
217 12 170 125 -24 57 -93 83 -145 54z"/>
<path d="M1994 1190 c-77 -11 -122 -29 -160 -63 -48 -42 -67 -83 -68 -147 -2
-126 61 -174 283 -220 147 -31 171 -39 209 -73 27 -25 30 -81 6 -116 -45 -63
-198 -79 -384 -40 -97 21 -101 21 -120 4 -28 -26 -27 -80 3 -99 61 -40 285
-66 406 -47 173 27 260 107 261 239 0 134 -71 190 -299 237 -143 29 -184 45
-207 80 -21 33 -11 69 27 98 39 29 180 35 279 11 114 -26 152 -25 167 6 30 62
-20 100 -163 125 -92 16 -156 17 -240 5z"/>
<path d="M2536 1158 c-13 -19 -16 -59 -16 -238 0 -314 17 -383 111 -463 47
-41 102 -57 196 -57 116 0 190 35 232 110 12 22 26 42 30 44 4 3 23 -17 40
-44 49 -75 103 -103 213 -108 54 -3 106 0 134 8 65 19 135 85 164 157 22 54
24 75 28 311 5 291 2 302 -67 302 -68 0 -69 -4 -73 -280 -3 -240 -4 -246 -28
-289 -35 -63 -69 -84 -137 -89 -82 -5 -138 25 -173 93 -24 48 -25 57 -30 298
-5 272 -4 267 -67 267 -20 0 -41 -8 -53 -20 -19 -19 -20 -34 -21 -257 0 -156
-5 -249 -12 -271 -47 -128 -226 -152 -310 -41 -31 42 -37 94 -37 330 0 206 -2
227 -18 242 -28 25 -87 22 -106 -5z"/>
<path d="M725 912 c-5 -4 -10 -50 -10 -102 0 -93 1 -95 25 -101 14 -4 170 -7
346 -8 308 -1 322 0 347 19 31 25 51 80 42 120 -4 16 -20 41 -37 55 l-30 25
-336 0 c-185 0 -341 -4 -347 -8z"/>
<path d="M353 580 c-40 -24 -53 -48 -53 -100 0 -76 79 -129 146 -97 75 36 90
123 30 183 -40 40 -75 44 -123 14z"/>
<path d="M652 580 c-51 -31 -69 -111 -36 -158 35 -50 47 -52 424 -52 385 0
395 1 425 60 30 57 10 127 -45 155 -24 13 -86 15 -382 15 -335 0 -355 -1 -386
-20z"/>
</g>
</svg>
